<svg xmlns="http://www.w3.org/2000/svg" viewBox="0 0 363 316" fill="none" stroke="black" stroke-width="1">
<path d="M 27,285 L 28,286 L 28,288 L 74,288 L 76,286 L 155,286 L 157,288 L 207,288 L 209,286 L 288,286 L 290,288 L 336,288 L 336,285 L 336,287 L 335,288 L 291,288 L 289,286 L 208,286 L 206,288 L 158,288 L 156,286 L 75,286 L 73,288 L 29,288 L 28,287 L 28,286" />
<path d="M 73,263 L 73,270" />
<path d="M 275,262 L 272,265 L 272,279 L 283,279 L 283,266 L 282,265 L 282,264 L 280,262" />
<path d="M 255,262 L 254,263 L 253,263 L 253,264 L 252,265 L 252,266 L 251,267 L 251,277 L 252,278 L 252,279 L 263,279 L 263,266 L 262,265 L 262,264 L 261,263 L 260,263 L 259,262" />
<path d="M 235,262 L 234,263 L 233,263 L 232,264 L 232,265 L 231,266 L 231,277 L 232,278 L 232,279 L 244,279 L 243,278 L 243,267 L 242,266 L 242,265 L 241,264 L 241,263 L 240,263 L 239,262" />
<path d="M 142,262 L 141,263 L 140,263 L 140,264 L 139,265 L 139,266 L 138,267 L 138,275 L 139,276 L 139,279 L 150,279 L 150,266 L 149,265 L 149,264 L 147,262" />
<path d="M 122,262 L 121,263 L 120,263 L 120,264 L 119,265 L 119,266 L 118,267 L 118,277 L 119,278 L 119,279 L 130,279 L 130,266 L 129,265 L 129,264 L 127,262" />
<path d="M 102,262 L 101,263 L 100,263 L 99,264 L 99,266 L 98,267 L 98,277 L 99,278 L 99,279 L 110,279 L 110,266 L 109,265 L 109,264 L 108,263 L 107,263 L 106,262" />
<path d="M 114,260 L 114,261 L 113,262 L 114,262" />
<path d="M 94,260 L 94,261 L 93,262 L 94,262" />
<path d="M 81,260 L 80,261 L 78,261 L 78,262 L 77,263 L 77,264 L 76,265 L 76,278 L 75,279 L 74,279 L 73,278 L 73,273 L 73,279 L 89,279 L 89,278 L 90,277 L 90,269 L 89,268 L 89,265 L 88,264 L 88,263 L 87,263 L 86,262 L 82,262 L 81,263 L 80,263 L 79,264 L 79,265 L 78,266 L 78,271 L 77,272 L 76,271 L 76,265 L 77,264 L 77,263 L 79,261 L 80,261 L 81,260 L 82,260" />
<path d="M 134,259 L 134,261 L 133,262 L 134,262" />
<path d="M 280,253 L 280,256 L 283,256 L 283,253" />
<path d="M 260,253 L 260,256 L 263,256 L 263,253" />
<path d="M 240,253 L 240,256 L 243,256 L 243,253" />
<path d="M 211,253 L 211,256 L 214,256 L 214,253" />
<path d="M 107,253 L 107,256 L 110,256 L 110,253" />
<path d="M 78,253 L 78,256 L 81,256 L 81,253" />
<path d="M 276,252 L 275,253 L 272,253 L 271,254 L 272,255 L 272,256 L 275,256 L 275,253" />
<path d="M 216,252 L 218,252 L 220,254 L 220,256 L 223,256 L 223,253 L 219,253 L 218,252" />
<path d="M 143,252 L 142,253 L 138,253 L 138,254 L 139,255 L 139,256 L 141,256 L 142,255 L 142,253" />
<path d="M 103,252 L 102,253 L 98,253 L 98,255 L 99,256 L 101,256 L 101,255 L 102,254 L 102,253 L 103,252 L 105,252" />
<path d="M 83,252 L 85,252 L 86,253 L 86,254 L 87,255 L 87,256 L 89,256 L 89,255 L 90,254 L 90,253 L 86,253 L 85,252" />
<path d="M 257,251 L 255,253 L 251,253 L 251,255 L 252,256 L 254,256 L 254,255 L 255,254 L 255,253 L 257,251 L 258,252 L 258,253 L 258,251" />
<path d="M 237,251 L 235,253 L 231,253 L 231,256 L 234,256 L 234,254 L 237,251 L 238,252 L 238,253 L 238,252" />
<path d="M 287,250 L 287,251 L 286,252 L 285,252 L 285,253 L 286,254 L 286,256 L 284,258 L 279,258 L 278,257 L 278,252 L 278,257 L 277,258 L 271,258 L 269,256 L 269,252 L 265,252 L 265,257 L 264,258 L 259,258 L 258,257 L 258,255 L 258,257 L 257,258 L 256,257 L 255,258 L 250,258 L 249,257 L 249,252 L 245,252 L 245,257 L 244,258 L 239,258 L 238,257 L 238,256 L 238,257 L 237,258 L 236,257 L 236,256 L 236,257 L 235,258 L 230,258 L 229,257 L 229,252 L 225,252 L 225,257 L 224,258 L 219,258 L 218,257 L 218,256 L 218,257 L 217,258 L 216,257 L 216,256 L 216,257 L 215,258 L 210,258 L 209,257 L 209,252 L 206,252 L 206,278 L 207,279 L 210,279 L 211,278 L 212,279 L 222,279 L 223,278 L 224,279 L 225,278 L 226,279 L 229,279 L 229,265 L 230,264 L 230,263 L 232,261 L 233,261 L 234,260 L 240,260 L 241,261 L 242,261 L 243,262 L 243,263 L 245,265 L 245,277 L 246,278 L 246,279 L 249,279 L 249,266 L 250,265 L 250,264 L 251,263 L 251,262 L 252,261 L 253,261 L 254,260 L 260,260 L 261,261 L 262,261 L 264,263 L 264,264 L 265,265 L 265,277 L 266,278 L 266,279 L 269,279 L 269,267 L 270,266 L 270,264 L 274,260 L 281,260 L 285,264 L 285,266 L 286,267 L 286,279 L 288,279 L 288,278 L 289,277 L 289,253 L 287,251" />
<path d="M 74,250 L 74,251 L 73,252 L 73,260 L 73,252 L 74,251 L 76,253 L 76,258 L 92,258 L 92,253 L 93,252 L 95,252 L 96,253 L 96,258 L 112,258 L 112,253 L 113,252 L 115,252 L 116,253 L 116,258 L 132,258 L 132,253 L 134,251 L 136,253 L 136,258 L 152,258 L 152,253 L 153,252 L 154,252 L 155,253 L 155,278 L 154,279 L 152,277 L 152,271 L 153,270 L 153,268 L 152,267 L 152,265 L 151,264 L 151,263 L 150,262 L 150,261 L 149,261 L 148,260 L 141,260 L 140,261 L 139,261 L 137,263 L 137,265 L 136,266 L 136,278 L 135,279 L 134,279 L 132,277 L 132,270 L 133,269 L 132,268 L 132,265 L 131,264 L 131,263 L 128,260 L 121,260 L 120,261 L 119,261 L 117,263 L 117,265 L 116,266 L 116,278 L 115,279 L 114,279 L 112,277 L 112,264 L 108,260 L 101,260 L 100,261 L 99,261 L 97,263 L 97,264 L 96,265 L 96,278 L 95,279 L 93,279 L 92,278 L 92,266 L 91,265 L 91,264 L 90,263 L 90,262 L 88,260 L 84,260 L 87,260 L 88,261 L 89,261 L 90,262 L 90,263 L 91,264 L 91,265 L 92,266 L 92,279 L 96,279 L 96,265 L 97,264 L 97,263 L 99,261 L 100,261 L 101,260 L 107,260 L 108,261 L 109,261 L 111,263 L 111,264 L 112,265 L 112,277 L 113,278 L 113,279 L 116,279 L 116,266 L 117,265 L 117,264 L 118,263 L 118,262 L 119,261 L 120,261 L 121,260 L 128,260 L 131,263 L 131,264 L 132,265 L 132,268 L 133,269 L 132,270 L 132,277 L 133,278 L 133,279 L 136,279 L 136,266 L 137,265 L 137,264 L 138,263 L 138,262 L 139,261 L 140,261 L 141,260 L 148,260 L 151,263 L 151,264 L 152,265 L 152,267 L 153,268 L 153,270 L 152,271 L 152,277 L 153,278 L 153,279 L 155,279 L 155,252 L 151,252 L 150,253 L 147,253 L 147,256 L 150,256 L 150,253 L 151,252 L 152,253 L 152,257 L 151,258 L 146,258 L 145,257 L 145,252 L 145,257 L 144,258 L 137,258 L 136,257 L 136,252 L 135,252 L 134,251 L 133,252 L 131,252 L 130,253 L 127,253 L 127,256 L 130,256 L 130,253 L 131,252 L 132,253 L 132,257 L 131,258 L 126,258 L 125,257 L 125,252 L 123,252 L 122,253 L 118,253 L 118,255 L 119,256 L 121,256 L 121,255 L 122,254 L 122,253 L 123,252 L 124,252 L 125,253 L 125,257 L 124,258 L 117,258 L 116,257 L 116,252 L 112,252 L 112,257 L 111,258 L 106,258 L 105,257 L 104,258 L 103,257 L 102,258 L 97,258 L 96,257 L 96,252 L 92,252 L 92,257 L 91,258 L 84,258 L 83,257 L 83,256 L 83,257 L 82,258 L 77,258 L 76,257 L 76,252 L 75,252 L 74,251" />
<path d="M 177,247 L 176,248 L 174,248 L 173,249 L 172,249 L 169,252 L 168,251 L 169,252 L 169,253 L 168,254 L 168,255 L 167,256 L 167,258 L 166,259 L 166,279 L 167,280 L 167,281 L 195,281 L 195,258 L 194,257 L 194,255 L 193,254 L 193,253 L 189,249 L 188,249 L 187,248 L 186,248 L 185,247" />
<path d="M 177,243 L 185,243" />
<path d="M 158,242 L 157,243 L 157,279 L 158,280 L 158,281 L 161,281 L 161,280 L 162,279 L 162,256 L 163,255 L 163,254 L 164,253 L 164,252 L 171,245 L 172,245 L 173,244 L 175,244 L 172,244 L 171,245 L 170,245 L 168,247 L 167,246 L 161,246 L 160,247 L 161,246 L 167,246 L 168,247 L 164,251 L 164,252 L 163,253 L 163,255 L 162,256 L 162,279 L 160,281 L 159,281 L 157,279 L 157,244 L 159,242 L 175,242" />
<path d="M 195,238 L 196,238" />
<path d="M 177,238 L 178,238" />
<path d="M 165,238 L 167,238" />
<path d="M 152,224 L 153,224" />
<path d="M 144,224 L 145,224" />
<path d="M 132,224 L 136,224" />
<path d="M 112,224 L 116,224" />
<path d="M 92,224 L 96,224" />
<path d="M 75,224 L 76,224" />
<path d="M 208,219 L 207,220 L 206,220 L 206,237 L 207,238 L 207,241 L 206,242 L 187,242 L 203,242 L 204,243 L 204,280 L 203,281 L 201,281 L 200,280 L 200,259 L 199,258 L 199,255 L 198,254 L 198,253 L 197,252 L 197,251 L 195,249 L 195,248 L 194,247 L 195,246 L 202,246 L 195,246 L 194,247 L 193,247 L 191,245 L 190,245 L 189,244 L 187,244 L 188,244 L 189,245 L 190,245 L 192,247 L 193,247 L 195,249 L 195,250 L 197,252 L 197,253 L 199,255 L 199,258 L 200,259 L 200,281 L 204,281 L 204,243 L 205,242 L 206,243 L 206,247 L 207,248 L 288,248 L 288,247 L 289,246 L 289,226 L 288,225 L 288,223 L 289,222 L 289,221 L 287,219 L 286,220 L 274,220 L 273,219 L 271,219 L 270,220 L 264,220 L 263,219 L 260,219 L 259,220 L 240,220 L 239,219 L 237,219 L 236,220 L 235,219 L 234,219 L 233,220 L 230,220 L 229,219 L 226,219 L 225,220 L 210,220 L 209,219" />
<path d="M 80,219 L 79,220 L 73,220 L 73,229 L 73,221 L 74,220 L 79,220 L 80,219 L 81,220 L 88,220 L 89,219 L 90,219 L 91,220 L 94,220 L 95,219 L 96,219 L 97,220 L 98,220 L 99,219 L 102,219 L 103,220 L 123,220 L 124,219 L 125,219 L 126,220 L 134,220 L 135,219 L 136,219 L 137,220 L 142,220 L 143,219 L 144,219 L 145,220 L 152,220 L 153,219 L 155,221 L 155,247 L 154,248 L 152,246 L 152,233 L 153,232 L 153,227 L 152,226 L 145,226 L 144,227 L 143,226 L 137,226 L 135,228 L 135,231 L 136,232 L 136,247 L 135,248 L 134,248 L 132,246 L 132,233 L 133,232 L 133,228 L 132,227 L 132,226 L 125,226 L 124,227 L 123,226 L 117,226 L 114,229 L 111,226 L 105,226 L 104,227 L 103,226 L 97,226 L 94,229 L 91,226 L 85,226 L 84,227 L 83,226 L 77,226 L 75,228 L 75,232 L 76,233 L 76,246 L 78,246 L 79,247 L 78,248 L 75,248 L 73,246 L 73,231 L 73,247 L 74,248 L 155,248 L 155,241 L 156,240 L 204,240 L 204,238 L 204,239 L 203,240 L 158,240 L 157,239 L 157,238 L 157,239 L 156,240 L 155,239 L 155,220 L 154,220 L 153,219 L 152,220 L 145,220 L 144,219 L 143,219 L 142,220 L 137,220 L 136,219 L 135,219 L 134,220 L 126,220 L 125,219 L 124,219 L 123,220 L 103,220 L 102,219 L 99,219 L 98,220 L 97,220 L 96,219 L 95,219 L 94,220 L 91,220 L 90,219 L 89,219 L 88,220 L 81,220" />
<path d="M 291,205 L 291,281 L 299,281 L 299,269 L 300,268 L 300,267 L 301,266 L 301,265 L 305,261 L 306,261 L 307,260 L 316,260 L 318,262 L 319,262 L 322,265 L 322,266 L 323,267 L 323,268 L 324,269 L 324,280 L 323,281 L 322,280 L 322,271 L 321,270 L 321,268 L 320,267 L 320,266 L 318,264 L 317,264 L 315,262 L 308,262 L 307,263 L 306,263 L 303,266 L 303,267 L 302,268 L 302,270 L 301,271 L 301,279 L 302,280 L 302,281 L 332,281 L 332,205" />
<path d="M 201,204 L 201,205 L 199,207 L 200,206 L 201,206" />
<path d="M 317,203 L 318,203" />
<path d="M 308,203 L 309,203" />
<path d="M 290,203 L 291,203" />
<path d="M 71,203 L 70,204 L 68,204 L 67,205 L 29,205 L 29,281 L 37,281 L 37,270 L 38,269 L 38,267 L 40,265 L 40,264 L 42,262 L 43,262 L 44,261 L 45,261 L 46,262 L 44,264 L 43,264 L 42,265 L 42,266 L 40,268 L 40,271 L 39,272 L 39,274 L 40,275 L 40,281 L 60,281 L 60,270 L 59,269 L 59,268 L 58,267 L 58,266 L 55,263 L 54,263 L 53,262 L 46,262 L 45,261 L 46,260 L 54,260 L 55,261 L 56,261 L 60,265 L 60,266 L 62,268 L 62,280 L 63,281 L 70,281 L 70,268 L 71,267 L 71,265 L 70,264 L 70,208 L 71,207 L 70,206 L 70,204" />
<path d="M 55,203 L 56,203" />
<path d="M 46,203 L 47,203" />
<path d="M 179,202 L 179,236 L 180,236 L 181,237 L 182,237 L 183,238 L 184,238 L 183,238 L 182,237 L 182,202" />
<path d="M 290,201 L 332,201 L 333,202 L 333,203 L 333,201" />
<path d="M 28,201 L 28,202 L 29,203 L 28,202 L 29,201 L 72,201" />
<path d="M 329,198 L 329,199 L 330,198 L 331,199 L 331,198" />
<path d="M 324,198 L 324,199 L 325,198 L 326,199 L 326,198" />
<path d="M 321,198 L 321,199" />
<path d="M 302,198 L 302,199 L 303,198" />
<path d="M 297,198 L 297,199 L 298,198 L 299,199 L 299,198" />
<path d="M 293,198 L 294,199 L 294,198" />
<path d="M 291,198 L 291,199" />
<path d="M 196,198 L 196,200" />
<path d="M 67,198 L 67,199 L 68,198 L 69,199 L 69,198" />
<path d="M 58,198 L 59,198" />
<path d="M 40,198 L 40,199 L 41,198 L 42,199 L 41,198" />
<path d="M 35,198 L 35,199 L 36,198 L 37,199 L 37,198" />
<path d="M 30,198 L 30,199 L 31,198 L 32,199 L 32,198" />
<path d="M 182,197 L 181,198 L 181,199 L 180,200 L 182,198 L 183,199 L 182,198" />
<path d="M 189,196 L 188,197 L 186,197 L 186,198 L 185,199 L 185,236 L 194,236 L 194,199 L 192,197 L 191,197 L 190,196" />
<path d="M 171,196 L 170,197 L 169,197 L 168,198 L 168,199 L 167,200 L 167,236 L 177,236 L 177,203 L 176,202 L 176,198 L 175,197 L 173,197 L 172,196" />
<path d="M 315,194 L 315,199 L 317,199 L 317,198 L 319,196 L 332,196 L 332,194" />
<path d="M 291,194 L 307,194 L 308,195 L 308,198 L 307,199 L 306,198 L 306,197 L 305,196 L 290,196 L 304,196 L 306,198 L 306,199 L 308,199 L 308,194" />
<path d="M 186,194 L 187,195" />
<path d="M 175,194 L 174,195" />
<path d="M 53,194 L 53,199 L 55,199 L 56,198 L 56,197 L 57,196 L 70,196 L 70,194" />
<path d="M 338,192 L 338,193 L 337,194 L 338,194" />
<path d="M 311,192 L 310,193 L 310,198 L 313,198 L 313,192" />
<path d="M 76,192 L 77,193" />
<path d="M 49,192 L 48,193 L 47,193 L 46,194 L 29,194 L 29,196 L 42,196 L 44,198 L 44,199 L 46,199 L 46,194 L 47,193 L 48,194 L 48,197 L 49,198 L 51,198 L 51,192" />
<path d="M 312,187 L 309,190 L 310,189 L 311,189 L 311,188" />
<path d="M 162,181 L 162,183 L 201,183 L 163,183 L 162,182" />
<path d="M 197,169 L 197,176" />
<path d="M 182,169 L 183,170 L 183,176 L 185,176 L 185,170 L 186,169 L 191,169 L 192,170 L 192,176 L 193,176 L 192,175 L 192,170 L 193,169 L 195,169" />
<path d="M 168,169 L 169,169 L 171,171 L 171,172 L 170,173 L 170,175 L 169,176 L 180,176 L 179,175 L 179,169 L 179,175 L 178,176 L 174,176 L 173,175 L 173,170 L 174,169" />
<path d="M 166,169 L 166,173 L 167,174 L 167,176 L 167,174 L 166,173" />
<path d="M 164,169 L 164,176" />
<path d="M 304,161 L 304,162 L 303,163 L 303,164 L 302,165 L 302,166 L 301,167 L 301,168 L 299,170 L 299,171 L 298,172 L 298,173 L 297,174 L 297,175 L 296,176 L 296,177 L 295,178 L 295,179 L 294,180 L 294,181 L 293,182 L 293,183 L 291,185 L 291,188 L 306,188 L 307,187 L 308,187 L 311,184 L 312,184 L 316,188 L 332,188 L 332,185 L 331,184 L 331,183 L 329,181 L 329,180 L 328,179 L 328,178 L 327,177 L 327,176 L 326,175 L 326,174 L 325,173 L 325,172 L 324,171 L 324,170 L 322,168 L 322,167 L 321,166 L 321,165 L 320,164 L 320,162 L 319,161" />
<path d="M 42,161 L 42,163 L 40,165 L 40,166 L 39,167 L 39,168 L 38,169 L 38,170 L 37,171 L 37,172 L 36,173 L 36,174 L 34,176 L 34,177 L 33,178 L 33,179 L 32,180 L 32,181 L 31,182 L 31,183 L 30,184 L 30,185 L 29,186 L 29,188 L 44,188 L 45,187 L 46,187 L 50,183 L 51,184 L 51,185 L 54,188 L 70,188 L 70,185 L 69,184 L 69,183 L 68,182 L 68,181 L 67,180 L 67,179 L 65,177 L 65,176 L 64,175 L 64,174 L 63,173 L 63,172 L 62,171 L 62,170 L 61,169 L 61,168 L 60,167 L 60,166 L 59,165 L 59,164 L 58,163 L 58,162 L 57,161" />
<path d="M 199,150 L 199,151 L 198,152 L 198,153 L 199,152" />
<path d="M 179,148 L 179,166 L 180,166 L 181,167 L 182,167 L 182,149 L 181,148 L 181,149 L 182,150 L 182,166 L 181,167 L 179,165" />
<path d="M 181,145 L 180,146" />
<path d="M 171,143 L 170,144 L 169,144 L 169,146 L 168,147 L 168,165 L 170,165 L 171,166 L 175,166 L 176,165 L 177,165 L 177,146 L 176,145 L 176,144 L 175,143" />
<path d="M 192,142 L 191,143 L 187,143 L 186,144 L 185,144 L 185,146 L 184,147 L 184,163 L 185,164 L 184,165 L 187,165 L 188,166 L 191,166 L 192,165 L 193,165 L 193,146 L 192,145 L 192,144 L 191,143" />
<path d="M 165,137 L 165,139 L 166,140 L 165,141 L 165,142 L 164,143 L 164,149 L 165,149 L 166,150 L 166,165 L 164,167 L 161,167 L 161,179 L 199,179 L 201,177 L 201,170 L 200,169 L 200,167 L 197,167 L 195,165 L 195,148 L 195,166 L 196,166 L 197,167 L 199,167 L 200,168 L 200,169 L 201,170 L 201,177 L 199,179 L 162,179 L 161,178 L 161,168 L 162,167 L 165,167 L 166,166 L 166,150 L 164,148 L 164,144 L 165,143 L 165,142 L 167,140 L 168,140 L 170,138 L 175,138 L 177,140 L 178,140 L 180,142 L 181,142 L 183,140 L 184,140 L 185,141 L 184,140 L 186,138 L 191,138 L 193,140 L 194,140 L 197,143 L 197,144 L 198,145 L 198,147 L 197,148 L 198,148 L 198,145 L 197,144 L 197,142 L 195,140 L 194,140 L 193,139 L 192,139 L 191,138 L 186,138 L 185,139 L 184,139 L 183,140 L 182,140 L 181,141 L 180,141 L 179,140 L 178,140 L 177,139 L 176,139 L 175,138 L 170,138 L 169,139 L 168,139 L 167,140 L 166,140 L 165,139" />
<path d="M 198,136 L 199,137 L 199,138 L 198,139 L 197,139 L 198,139 L 199,138 L 199,136" />
<path d="M 197,124 L 197,125 L 198,124 L 202,124" />
<path d="M 161,124 L 160,125 L 161,124 L 165,124" />
<path d="M 210,120 L 210,122 L 209,123 L 210,123" />
<path d="M 158,120 L 158,121 L 157,122 L 157,234 L 158,235 L 158,236 L 160,236 L 161,237 L 163,237 L 164,236 L 165,236 L 165,200 L 164,199 L 165,200 L 165,235 L 163,237 L 161,237 L 160,236 L 159,236 L 157,234 L 157,122 L 159,120 L 166,120 L 167,121 L 167,131 L 166,132 L 164,132 L 164,134 L 198,134 L 197,133 L 197,132 L 196,132 L 194,130 L 194,121 L 195,120 L 202,120 L 204,122 L 204,235 L 202,237 L 200,237 L 199,236 L 198,236 L 197,235 L 197,203 L 198,202 L 199,202 L 199,197 L 198,196 L 198,195 L 196,193 L 195,193 L 194,192 L 192,192 L 191,191 L 187,191 L 186,192 L 184,192 L 181,195 L 180,195 L 177,192 L 175,192 L 174,191 L 170,191 L 169,192 L 167,192 L 166,193 L 165,193 L 164,194 L 164,195 L 163,196 L 163,197 L 162,198 L 162,202 L 163,203 L 163,202 L 162,201 L 162,198 L 164,196 L 164,195 L 166,193 L 167,193 L 169,195 L 167,193 L 168,192 L 169,192 L 170,191 L 174,191 L 175,192 L 176,192 L 179,195 L 182,195 L 185,192 L 186,192 L 187,191 L 191,191 L 192,192 L 193,192 L 194,193 L 192,195 L 194,193 L 195,193 L 199,197 L 199,201 L 197,203 L 197,236 L 199,236 L 200,237 L 202,237 L 203,236 L 204,236 L 204,121 L 203,120 L 194,120 L 194,130 L 195,131 L 195,132 L 196,132 L 197,133 L 196,134 L 165,134 L 164,133 L 165,132 L 167,132 L 167,120" />
<path d="M 194,115 L 194,117 L 206,117 L 206,115" />
<path d="M 155,115 L 155,116 L 156,117 L 167,117 L 167,115" />
<path d="M 188,112 L 190,114" />
<path d="M 154,102 L 154,112 L 153,113 L 153,115 L 152,116 L 153,117 L 153,119 L 154,119 L 155,120 L 155,194 L 154,195 L 74,195 L 73,194 L 73,191 L 75,189 L 75,188 L 73,186 L 73,185 L 72,184 L 72,183 L 71,182 L 71,181 L 70,180 L 70,179 L 68,177 L 68,176 L 67,175 L 67,174 L 66,173 L 66,172 L 65,171 L 65,170 L 64,169 L 64,168 L 63,167 L 63,166 L 61,164 L 61,163 L 60,162 L 60,159 L 58,157 L 58,152 L 56,152 L 55,153 L 45,153 L 44,152 L 41,152 L 41,157 L 40,158 L 40,161 L 38,163 L 38,164 L 37,165 L 37,166 L 36,167 L 36,168 L 35,169 L 35,170 L 34,171 L 34,172 L 32,174 L 32,175 L 31,176 L 31,177 L 30,178 L 30,179 L 29,180 L 29,181 L 28,182 L 28,183 L 26,185 L 26,186 L 25,187 L 25,190 L 27,192 L 27,198 L 26,199 L 26,205 L 27,206 L 27,283 L 28,283 L 29,284 L 30,284 L 31,283 L 38,283 L 39,284 L 41,284 L 42,283 L 62,283 L 63,284 L 64,284 L 65,283 L 73,283 L 73,282 L 74,281 L 154,281 L 155,282 L 155,283 L 157,283 L 158,284 L 159,284 L 160,283 L 162,283 L 163,284 L 164,283 L 199,283 L 200,284 L 201,284 L 202,283 L 206,283 L 208,281 L 287,281 L 289,283 L 290,283 L 291,284 L 292,284 L 293,283 L 299,283 L 300,284 L 303,284 L 304,283 L 323,283 L 324,284 L 326,284 L 327,283 L 334,283 L 335,282 L 335,209 L 334,208 L 334,207 L 335,206 L 335,204 L 336,203 L 336,199 L 335,198 L 335,194 L 334,193 L 334,192 L 337,189 L 336,188 L 336,187 L 335,186 L 335,185 L 334,184 L 334,183 L 333,182 L 333,181 L 331,179 L 331,178 L 330,177 L 330,176 L 329,175 L 329,174 L 328,173 L 328,172 L 327,171 L 327,170 L 325,168 L 325,167 L 324,166 L 324,165 L 323,164 L 323,163 L 322,162 L 322,159 L 320,157 L 320,151 L 319,152 L 318,151 L 318,152 L 317,153 L 306,153 L 305,152 L 303,152 L 303,157 L 301,159 L 301,162 L 300,163 L 300,164 L 299,165 L 299,166 L 298,167 L 298,168 L 296,170 L 296,171 L 295,172 L 295,173 L 294,174 L 294,175 L 293,176 L 293,177 L 292,178 L 292,179 L 291,180 L 291,181 L 289,183 L 289,184 L 288,185 L 288,186 L 287,187 L 287,190 L 289,192 L 288,193 L 288,194 L 287,195 L 208,195 L 206,193 L 206,120 L 208,118 L 209,118 L 209,114 L 208,113 L 208,112 L 207,111 L 207,107 L 208,106 L 207,105 L 207,102 L 205,102 L 205,103 L 206,102 L 207,103 L 207,105 L 208,106 L 207,107 L 207,111 L 208,112 L 208,114 L 209,115 L 209,117 L 207,119 L 206,119 L 206,194 L 207,195 L 287,195 L 288,196 L 287,197 L 208,197 L 207,198 L 206,198 L 206,215 L 288,215 L 288,214 L 289,213 L 289,210 L 288,209 L 288,204 L 287,203 L 288,202 L 288,199 L 289,198 L 288,197 L 288,193 L 289,192 L 288,191 L 288,190 L 287,189 L 287,188 L 288,187 L 288,186 L 289,185 L 289,184 L 291,182 L 291,181 L 292,180 L 292,179 L 293,178 L 293,177 L 294,176 L 294,175 L 295,174 L 295,173 L 296,172 L 296,171 L 297,170 L 297,169 L 299,167 L 299,166 L 300,165 L 300,164 L 301,163 L 301,160 L 303,158 L 303,153 L 304,152 L 305,153 L 318,153 L 319,152 L 320,153 L 320,158 L 322,160 L 322,163 L 324,165 L 324,167 L 326,169 L 326,170 L 327,171 L 327,172 L 328,173 L 328,174 L 329,175 L 329,176 L 330,177 L 330,178 L 331,179 L 331,180 L 333,182 L 333,183 L 334,184 L 334,185 L 335,186 L 335,187 L 337,189 L 336,190 L 335,190 L 335,191 L 334,192 L 334,193 L 335,194 L 335,199 L 336,200 L 336,203 L 335,204 L 335,206 L 334,207 L 334,208 L 335,209 L 335,282 L 334,283 L 327,283 L 326,284 L 324,284 L 323,283 L 304,283 L 303,284 L 300,284 L 299,283 L 293,283 L 292,284 L 291,284 L 290,283 L 289,283 L 288,282 L 288,281 L 207,281 L 205,283 L 202,283 L 201,284 L 200,284 L 199,283 L 164,283 L 163,284 L 162,283 L 160,283 L 159,284 L 158,284 L 157,283 L 156,283 L 155,282 L 155,281 L 73,281 L 73,282 L 72,283 L 65,283 L 64,284 L 63,284 L 62,283 L 42,283 L 41,284 L 39,284 L 38,283 L 31,283 L 30,284 L 29,284 L 27,282 L 27,206 L 26,205 L 26,199 L 27,198 L 27,192 L 26,191 L 26,190 L 25,189 L 25,188 L 26,187 L 26,186 L 27,185 L 27,184 L 29,182 L 29,181 L 30,180 L 30,179 L 31,178 L 31,177 L 32,176 L 32,175 L 34,173 L 34,172 L 35,171 L 35,170 L 36,169 L 36,168 L 37,167 L 37,166 L 38,165 L 38,164 L 40,162 L 40,159 L 41,158 L 41,153 L 42,152 L 43,152 L 44,153 L 56,153 L 57,152 L 58,153 L 58,158 L 60,160 L 60,162 L 61,163 L 61,164 L 62,165 L 62,166 L 63,167 L 63,168 L 64,169 L 64,170 L 65,171 L 65,172 L 66,173 L 66,174 L 67,175 L 67,176 L 69,178 L 69,179 L 70,180 L 70,181 L 71,182 L 71,183 L 72,184 L 72,185 L 73,186 L 73,187 L 75,189 L 74,190 L 73,190 L 73,195 L 154,195 L 155,196 L 154,197 L 73,197 L 73,199 L 74,200 L 74,204 L 73,205 L 73,215 L 155,215 L 155,119 L 154,119 L 153,118 L 153,117 L 152,116 L 153,115 L 153,114 L 154,113 L 154,103 L 155,102 L 156,103 L 156,105 L 156,102" />
<path d="M 181,101 L 181,102 L 180,103 L 180,104 L 179,105 L 179,106 L 178,107 L 178,108 L 177,109 L 177,110 L 176,111 L 176,112 L 177,113 L 176,114 L 175,114 L 173,116 L 173,117 L 172,118 L 172,125 L 173,126 L 173,127 L 176,130 L 184,130 L 185,129 L 186,129 L 189,126 L 189,123 L 190,122 L 190,121 L 189,120 L 189,117 L 185,113 L 177,113 L 176,112 L 176,111 L 178,109 L 178,108 L 179,107 L 179,106 L 180,105 L 180,104 L 181,103" />
<path d="M 174,63 L 174,68 L 175,68 L 176,67 L 177,68 L 188,68 L 188,63 L 188,67 L 187,68 L 186,67 L 186,65 L 185,64 L 185,63 L 185,64 L 186,65 L 186,67 L 185,68 L 184,68 L 183,67 L 183,63 L 183,67 L 182,68 L 180,68 L 179,67 L 179,63 L 179,67 L 178,68 L 177,68 L 176,67 L 176,66 L 177,65 L 176,66 L 176,67 L 175,68 L 174,67" />
<path d="M 180,35 L 180,36 L 179,37 L 179,59 L 178,60 L 175,60 L 174,61 L 173,60 L 173,59 L 172,58 L 171,58 L 171,59 L 170,60 L 170,75 L 169,76 L 169,77 L 168,78 L 168,79 L 167,80 L 167,82 L 166,83 L 166,84 L 165,85 L 165,87 L 164,88 L 164,89 L 163,90 L 163,91 L 162,92 L 162,94 L 161,95 L 161,96 L 160,97 L 160,98 L 159,99 L 159,100 L 158,101 L 158,104 L 159,105 L 159,107 L 158,108 L 158,109 L 157,110 L 157,112 L 167,112 L 167,109 L 169,107 L 173,107 L 173,105 L 175,103 L 175,101 L 176,100 L 176,99 L 177,98 L 177,97 L 178,96 L 178,95 L 179,94 L 179,93 L 180,92 L 181,92 L 182,93 L 182,94 L 183,95 L 183,96 L 182,97 L 181,96 L 180,96 L 180,97 L 179,98 L 179,99 L 178,100 L 178,101 L 177,102 L 177,104 L 176,105 L 177,104 L 177,103 L 178,102 L 178,101 L 179,100 L 179,98 L 180,97 L 181,97 L 182,98 L 182,99 L 183,100 L 183,102 L 184,103 L 184,104 L 185,105 L 185,106 L 186,107 L 186,108 L 188,110 L 191,110 L 192,111 L 192,131 L 191,132 L 171,132 L 169,130 L 169,117 L 170,116 L 170,115 L 169,114 L 169,111 L 170,110 L 172,110 L 173,109 L 174,109 L 175,108 L 175,107 L 175,108 L 174,109 L 173,109 L 172,110 L 169,110 L 169,114 L 170,115 L 170,116 L 169,117 L 169,130 L 170,131 L 170,132 L 193,132 L 192,131 L 192,110 L 189,110 L 186,107 L 186,106 L 185,105 L 185,104 L 184,103 L 184,102 L 183,101 L 183,100 L 182,99 L 182,97 L 183,96 L 184,97 L 184,98 L 185,99 L 185,100 L 186,101 L 186,102 L 187,103 L 187,104 L 188,105 L 188,106 L 189,107 L 192,107 L 194,109 L 194,111 L 195,111 L 196,112 L 204,112 L 204,110 L 203,109 L 203,108 L 202,107 L 202,105 L 201,104 L 201,103 L 200,102 L 200,101 L 199,100 L 199,98 L 198,97 L 198,96 L 197,95 L 197,93 L 196,92 L 196,91 L 195,90 L 195,89 L 194,88 L 194,86 L 193,85 L 193,84 L 192,83 L 192,81 L 191,80 L 191,79 L 190,78 L 190,76 L 189,75 L 189,73 L 173,73 L 172,74 L 172,76 L 171,77 L 171,78 L 170,79 L 170,81 L 169,82 L 169,83 L 168,84 L 168,85 L 167,86 L 167,88 L 166,89 L 166,90 L 165,91 L 165,92 L 164,93 L 164,95 L 163,96 L 163,97 L 162,98 L 162,100 L 161,101 L 161,102 L 160,103 L 160,104 L 159,105 L 158,104 L 158,102 L 159,101 L 159,99 L 160,98 L 160,97 L 161,96 L 161,95 L 162,94 L 162,92 L 163,91 L 163,90 L 164,89 L 164,88 L 165,87 L 165,85 L 166,84 L 166,83 L 167,82 L 167,80 L 168,79 L 168,78 L 169,77 L 169,76 L 170,75 L 170,60 L 171,59 L 172,59 L 174,61 L 175,60 L 179,60 L 179,37 L 180,36 L 181,36 L 182,37 L 182,60 L 183,61 L 184,60 L 185,61 L 186,61 L 187,60 L 188,61 L 188,60 L 190,58 L 191,59 L 191,74 L 192,75 L 192,76 L 193,77 L 193,79 L 194,80 L 194,82 L 195,83 L 195,84 L 196,85 L 196,86 L 197,87 L 197,88 L 198,89 L 198,91 L 199,92 L 199,93 L 200,94 L 200,96 L 201,97 L 201,98 L 202,99 L 202,100 L 203,101 L 203,103 L 203,101 L 202,100 L 202,99 L 201,98 L 201,97 L 200,96 L 200,94 L 199,93 L 199,92 L 198,91 L 198,89 L 197,88 L 197,87 L 196,86 L 196,85 L 195,84 L 195,82 L 194,81 L 194,80 L 193,79 L 193,77 L 192,76 L 192,75 L 191,74 L 191,58 L 189,58 L 186,61 L 185,61 L 184,60 L 183,60 L 182,59 L 182,36 L 181,36" />
<path d="M 5,0 L 4,1 L 0,1 L 4,1 L 5,0 L 131,0 L 132,1 L 133,1 L 134,0 L 136,0 L 137,1 L 141,1 L 142,0 L 268,0 L 269,1 L 270,1 L 271,0 L 272,0 L 273,1 L 274,1 L 275,0 L 276,1 L 278,1 L 279,0 L 362,0 L 279,0 L 278,1 L 276,1 L 275,0 L 274,1 L 273,1 L 272,0 L 271,0 L 270,1 L 269,1 L 268,0 L 142,0 L 141,1 L 137,1 L 136,0 L 134,0 L 133,1 L 132,1 L 131,0" />
</svg>