<svg xmlns="http://www.w3.org/2000/svg" viewBox="0 0 199 326" fill="none" stroke="black" stroke-width="1">
<path d="M 77,225 L 77,229 L 76,230 L 76,234 L 75,235 L 75,239 L 74,240 L 74,245 L 73,246 L 73,249 L 72,250 L 72,255 L 71,256 L 71,260 L 70,261 L 70,265 L 69,266 L 69,269 L 68,270 L 68,274 L 67,275 L 67,279 L 66,280 L 66,283 L 65,284 L 65,289 L 64,290 L 64,293 L 67,293 L 67,292 L 68,291 L 68,288 L 69,287 L 69,281 L 70,280 L 70,275 L 71,274 L 71,269 L 72,268 L 72,263 L 73,262 L 73,258 L 74,257 L 74,252 L 75,251 L 75,246 L 76,245 L 76,241 L 77,240 L 77,236 L 78,235 L 78,231 L 78,235 L 77,236 L 77,240 L 76,241 L 76,245 L 75,246 L 74,245 L 74,240 L 75,239 L 75,235 L 76,234 L 76,230 L 77,229" />
<path d="M 80,210 L 80,213 L 79,214 L 79,219 L 78,220 L 78,223 L 78,220 L 79,219 L 80,220 L 80,224 L 79,225 L 79,229 L 79,225 L 80,224 L 80,220 L 81,219 L 81,214 L 82,213 L 82,210" />
<path d="M 110,204 L 110,205 L 109,206 L 108,205 L 108,209 L 108,207 L 109,206 L 110,207 L 110,209 L 111,210 L 111,215 L 110,216 L 109,215 L 109,211 L 109,215 L 110,216 L 110,222 L 111,223 L 111,231 L 112,232 L 112,240 L 113,241 L 113,248 L 114,249 L 114,258 L 115,259 L 115,266 L 116,267 L 116,275 L 117,276 L 117,284 L 118,285 L 118,292 L 129,292 L 129,289 L 128,288 L 128,284 L 127,283 L 127,280 L 126,279 L 126,276 L 125,275 L 125,272 L 124,271 L 124,267 L 123,266 L 123,264 L 122,263 L 122,259 L 121,258 L 121,255 L 120,254 L 120,250 L 119,249 L 119,247 L 118,246 L 118,242 L 117,241 L 117,238 L 116,237 L 116,233 L 115,232 L 115,229 L 114,228 L 114,225 L 113,224 L 113,221 L 112,220 L 112,216 L 111,215 L 111,210 L 110,209" />
<path d="M 91,183 L 91,187" />
<path d="M 89,183 L 89,187" />
<path d="M 81,95 L 81,98 L 82,99 L 82,103 L 83,104 L 83,110 L 84,111 L 84,114 L 86,114 L 86,111 L 86,113 L 85,114 L 84,113 L 84,111 L 83,110 L 83,104 L 84,103 L 85,104 L 85,109 L 85,104 L 84,103 L 84,95" />
<path d="M 95,94 L 95,95 L 94,96 L 94,97 L 95,98 L 95,109 L 96,110 L 96,120 L 96,110 L 95,109 L 95,98 L 94,97 L 94,96 L 96,94 L 101,94 L 103,96 L 102,97 L 102,100 L 101,101 L 101,106 L 100,107 L 100,110 L 99,111 L 99,116 L 98,117 L 98,120 L 98,117 L 99,116 L 99,111 L 100,110 L 100,107 L 101,106 L 101,101 L 102,100 L 102,97 L 103,96 L 102,95 L 102,94" />
<path d="M 88,94 L 88,105 L 89,106 L 89,118 L 90,119 L 90,133 L 91,134 L 91,147 L 92,148 L 92,161 L 93,162 L 93,169 L 94,170 L 94,296 L 102,296 L 102,295 L 103,294 L 103,290 L 102,289 L 102,273 L 101,272 L 101,241 L 100,240 L 100,216 L 99,215 L 99,171 L 100,170 L 100,166 L 99,165 L 99,152 L 100,151 L 100,145 L 101,144 L 101,137 L 102,136 L 102,132 L 103,131 L 103,126 L 104,125 L 104,122 L 105,121 L 105,117 L 106,116 L 106,113 L 107,112 L 107,108 L 108,107 L 108,105 L 109,104 L 109,100 L 110,99 L 110,97 L 111,96 L 111,95 L 107,95 L 107,96 L 106,97 L 106,101 L 105,102 L 105,106 L 104,107 L 104,110 L 103,111 L 103,116 L 102,117 L 102,119 L 101,120 L 101,124 L 100,125 L 100,127 L 97,130 L 96,130 L 94,128 L 94,125 L 93,124 L 93,118 L 92,117 L 92,109 L 91,108 L 91,99 L 90,98 L 90,94" />
<path d="M 84,90 L 83,91 L 72,91 L 83,91 L 84,90 L 108,90 L 109,91 L 119,91 L 109,91 L 108,90" />
<path d="M 125,87 L 127,87 L 128,88 L 124,92 L 123,92 L 122,93 L 121,93 L 120,94 L 117,94 L 116,95 L 115,95 L 115,96 L 114,97 L 114,100 L 113,101 L 113,104 L 112,105 L 112,108 L 111,109 L 111,112 L 110,113 L 110,116 L 109,117 L 109,121 L 108,122 L 108,126 L 107,127 L 107,131 L 106,132 L 106,136 L 105,137 L 105,144 L 104,145 L 104,151 L 103,152 L 103,164 L 104,165 L 104,169 L 105,170 L 105,173 L 106,174 L 106,177 L 107,178 L 107,182 L 108,183 L 108,185 L 109,186 L 109,190 L 110,191 L 110,194 L 111,195 L 111,198 L 112,199 L 112,203 L 113,204 L 113,207 L 114,208 L 114,211 L 115,212 L 115,215 L 116,216 L 116,220 L 117,221 L 117,224 L 118,225 L 118,228 L 119,229 L 119,232 L 120,233 L 120,237 L 121,238 L 121,240 L 122,241 L 122,245 L 123,246 L 123,249 L 124,250 L 124,254 L 125,255 L 125,257 L 126,258 L 126,262 L 127,263 L 127,266 L 128,267 L 128,270 L 129,271 L 129,274 L 130,275 L 130,279 L 131,280 L 131,283 L 132,284 L 132,287 L 133,288 L 133,291 L 134,292 L 134,295 L 133,296 L 116,296 L 115,295 L 115,294 L 114,293 L 114,285 L 113,284 L 113,276 L 112,275 L 112,267 L 111,266 L 111,258 L 110,257 L 110,249 L 109,248 L 109,240 L 108,239 L 108,232 L 107,231 L 107,222 L 106,221 L 106,214 L 105,213 L 105,200 L 104,199 L 104,193 L 102,193 L 102,198 L 102,194 L 103,193 L 104,194 L 104,199 L 103,200 L 103,216 L 104,217 L 104,241 L 105,242 L 105,271 L 106,272 L 106,291 L 107,292 L 107,298 L 105,300 L 91,300 L 90,299 L 90,189 L 90,300 L 106,300 L 107,299 L 107,292 L 106,291 L 106,272 L 105,271 L 105,242 L 104,241 L 104,217 L 103,216 L 103,200 L 104,199 L 105,200 L 105,213 L 106,214 L 106,221 L 107,222 L 107,231 L 108,232 L 108,239 L 109,240 L 109,248 L 110,249 L 110,257 L 111,258 L 111,266 L 112,267 L 112,275 L 113,276 L 113,284 L 114,285 L 114,293 L 115,294 L 115,296 L 134,296 L 134,292 L 133,291 L 133,288 L 132,287 L 132,284 L 131,283 L 131,280 L 130,279 L 130,275 L 129,274 L 129,271 L 128,270 L 128,267 L 127,266 L 127,263 L 126,262 L 126,258 L 125,257 L 125,255 L 124,254 L 124,250 L 123,249 L 123,246 L 122,245 L 122,241 L 121,240 L 121,238 L 120,237 L 120,233 L 119,232 L 119,229 L 118,228 L 118,225 L 117,224 L 117,221 L 116,220 L 116,216 L 115,215 L 115,212 L 114,211 L 114,208 L 113,207 L 113,204 L 112,203 L 112,199 L 111,198 L 111,195 L 110,194 L 110,191 L 109,190 L 109,186 L 108,185 L 108,183 L 107,182 L 107,178 L 106,177 L 106,174 L 105,173 L 105,170 L 104,169 L 104,165 L 103,164 L 103,152 L 104,151 L 104,145 L 105,144 L 105,137 L 106,136 L 106,132 L 107,131 L 107,127 L 108,126 L 108,122 L 109,121 L 109,117 L 110,116 L 110,113 L 111,112 L 111,109 L 112,108 L 112,105 L 113,104 L 113,101 L 114,100 L 114,97 L 117,94 L 120,94 L 121,93 L 123,93 L 124,92 L 125,92 L 128,89 L 128,87" />
<path d="M 94,87 L 93,88 L 79,88 L 78,89 L 72,89 L 78,89 L 79,88 L 93,88 L 94,87 L 96,87 L 97,88 L 113,88 L 114,89 L 119,89 L 114,89 L 113,88 L 97,88 L 96,87" />
<path d="M 68,82 L 70,84 L 70,85 L 78,85 L 79,84 L 92,84 L 93,83 L 98,83 L 99,84 L 112,84 L 113,85 L 120,85 L 120,84 L 122,82 L 121,82 L 120,83 L 120,84 L 119,85 L 113,85 L 112,84 L 99,84 L 98,83 L 93,83 L 92,84 L 79,84 L 78,85 L 71,85 L 70,84 L 70,83 L 69,82" />
<path d="M 84,78 L 83,79 L 71,79 L 70,80 L 68,80 L 70,80 L 71,79 L 83,79 L 84,78 L 106,78 L 107,79 L 120,79 L 121,80 L 122,80 L 121,80 L 120,79 L 107,79 L 106,78" />
<path d="M 69,76 L 72,76" />
<path d="M 88,64 L 88,67 L 85,70 L 84,70 L 83,71 L 81,71 L 80,72 L 78,72 L 77,73 L 74,73 L 73,74 L 68,74 L 67,75 L 68,74 L 73,74 L 74,75 L 87,75 L 88,74 L 101,74 L 102,75 L 116,75 L 102,75 L 101,74 L 88,74 L 87,75 L 74,75 L 73,74 L 74,73 L 77,73 L 78,72 L 80,72 L 81,71 L 83,71 L 84,70 L 85,70 L 86,69 L 87,69 L 88,68 L 88,65 L 89,64 L 101,64 L 102,65 L 102,68 L 103,69 L 104,69 L 105,70 L 106,70 L 107,71 L 109,71 L 110,72 L 112,72 L 113,73 L 117,73 L 118,74 L 122,74 L 123,75 L 122,76 L 118,76 L 122,76 L 123,77 L 124,77 L 124,75 L 123,75 L 122,74 L 118,74 L 117,73 L 113,73 L 112,72 L 110,72 L 109,71 L 107,71 L 105,69 L 104,69 L 102,67 L 102,64" />
<path d="M 94,53 L 94,60 L 97,60 L 97,58 L 96,57 L 96,53 L 96,57 L 97,58 L 97,59 L 96,60 L 95,60 L 94,59" />
<path d="M 94,35 L 93,36 L 93,41 L 92,42 L 92,48 L 91,49 L 91,54 L 90,55 L 90,56 L 88,58 L 87,58 L 85,60 L 84,60 L 83,61 L 80,61 L 80,63 L 83,66 L 82,67 L 80,67 L 79,68 L 77,68 L 76,69 L 74,69 L 73,70 L 71,70 L 70,71 L 67,71 L 66,72 L 63,72 L 63,73 L 62,74 L 62,76 L 61,77 L 60,77 L 59,78 L 57,78 L 56,79 L 56,82 L 58,84 L 63,84 L 64,85 L 65,85 L 66,86 L 65,87 L 63,87 L 63,89 L 66,92 L 67,92 L 68,93 L 69,93 L 70,94 L 74,94 L 77,97 L 77,98 L 78,99 L 78,103 L 79,104 L 79,107 L 80,108 L 80,112 L 81,113 L 81,116 L 82,117 L 82,122 L 83,123 L 83,126 L 84,127 L 84,133 L 85,134 L 85,138 L 86,139 L 86,148 L 87,149 L 87,165 L 86,166 L 86,170 L 85,171 L 85,174 L 84,175 L 84,179 L 83,180 L 83,183 L 82,184 L 82,189 L 81,190 L 81,193 L 80,194 L 80,198 L 79,199 L 79,202 L 78,203 L 78,208 L 77,209 L 77,212 L 76,213 L 76,217 L 75,218 L 75,221 L 74,222 L 74,226 L 73,227 L 73,231 L 72,232 L 72,236 L 71,237 L 71,241 L 70,242 L 70,245 L 69,246 L 69,250 L 68,251 L 68,255 L 67,256 L 67,260 L 66,261 L 66,264 L 65,265 L 65,270 L 64,271 L 64,273 L 63,274 L 63,279 L 62,280 L 62,283 L 61,284 L 61,289 L 60,290 L 60,292 L 59,293 L 59,297 L 70,297 L 71,296 L 71,294 L 72,293 L 72,287 L 73,286 L 73,282 L 74,281 L 74,275 L 75,274 L 75,270 L 76,269 L 76,263 L 77,262 L 77,258 L 78,257 L 78,251 L 79,250 L 79,246 L 80,245 L 80,239 L 81,238 L 81,234 L 82,233 L 82,227 L 83,226 L 83,222 L 84,221 L 84,215 L 85,214 L 85,210 L 86,209 L 86,203 L 87,202 L 87,198 L 88,197 L 88,189 L 88,197 L 87,198 L 87,202 L 86,203 L 86,209 L 85,210 L 85,214 L 84,215 L 84,221 L 83,222 L 83,226 L 82,227 L 82,233 L 81,234 L 81,238 L 80,239 L 80,245 L 79,246 L 79,250 L 78,251 L 78,257 L 77,258 L 77,262 L 76,263 L 76,269 L 75,270 L 75,274 L 74,275 L 74,281 L 73,282 L 73,286 L 72,287 L 72,293 L 71,294 L 71,295 L 69,297 L 60,297 L 59,296 L 59,293 L 60,292 L 60,290 L 61,289 L 61,284 L 62,283 L 62,280 L 63,279 L 63,274 L 64,273 L 64,271 L 65,270 L 65,265 L 66,264 L 66,261 L 67,260 L 67,256 L 68,255 L 68,251 L 69,250 L 69,246 L 70,245 L 70,242 L 71,241 L 71,237 L 72,236 L 72,232 L 73,231 L 73,227 L 74,226 L 74,222 L 75,221 L 75,218 L 76,217 L 76,213 L 77,212 L 77,209 L 78,208 L 78,203 L 79,202 L 79,199 L 80,198 L 80,194 L 81,193 L 81,190 L 82,189 L 82,184 L 83,183 L 83,180 L 84,179 L 84,175 L 85,174 L 85,171 L 86,170 L 86,166 L 87,165 L 87,149 L 86,148 L 86,139 L 85,138 L 85,134 L 84,133 L 84,127 L 83,126 L 83,123 L 82,122 L 82,117 L 81,116 L 81,113 L 80,112 L 80,108 L 79,107 L 79,104 L 78,103 L 78,99 L 77,98 L 77,96 L 76,95 L 75,95 L 74,94 L 70,94 L 68,92 L 67,92 L 63,88 L 64,87 L 65,87 L 66,86 L 66,85 L 64,85 L 63,84 L 59,84 L 56,81 L 56,80 L 58,78 L 59,78 L 60,77 L 62,77 L 62,74 L 64,72 L 66,72 L 67,71 L 70,71 L 71,70 L 73,70 L 74,69 L 76,69 L 77,68 L 79,68 L 80,67 L 83,67 L 83,65 L 80,62 L 81,61 L 83,61 L 84,60 L 86,60 L 88,58 L 89,58 L 90,57 L 90,55 L 91,54 L 91,49 L 92,48 L 92,42 L 93,41 L 93,37 L 95,35 L 96,35 L 97,36 L 97,38 L 98,39 L 98,46 L 99,47 L 99,53 L 100,54 L 100,57 L 101,58 L 102,58 L 103,59 L 104,59 L 105,60 L 106,60 L 107,61 L 109,61 L 110,62 L 108,64 L 108,67 L 110,67 L 111,68 L 113,68 L 114,69 L 116,69 L 117,70 L 119,70 L 120,71 L 123,71 L 124,72 L 126,72 L 128,74 L 128,77 L 130,77 L 131,78 L 132,78 L 134,80 L 134,82 L 133,83 L 132,83 L 131,84 L 128,84 L 127,85 L 124,85 L 127,85 L 128,84 L 131,84 L 132,83 L 134,83 L 134,79 L 133,78 L 131,78 L 130,77 L 129,77 L 128,76 L 128,73 L 127,73 L 126,72 L 124,72 L 123,71 L 120,71 L 119,70 L 117,70 L 116,69 L 114,69 L 113,68 L 111,68 L 110,67 L 109,67 L 108,66 L 108,65 L 110,63 L 110,61 L 107,61 L 105,59 L 104,59 L 103,58 L 102,58 L 100,56 L 100,54 L 99,53 L 99,47 L 98,46 L 98,39 L 97,38 L 97,35" />
</svg>